Plot: When an unseen enemy threatens mankind by taking over their bodies and erasing their memories, Melanie will risk everything to protect the people she cares most about, proving that love can conquer all in a dangerous new world.



Director:
Andrew Niccol

Writers:
Stephenie Meyer (novel), Andrew Niccol (screenplay)

Stars:
Saoirse Ronan, Max Irons, Jake Abel

Genres:
Action |  Adventure |  Romance |  Sci-Fi |  Thriller

Country:
USA

Language:
English


Thanks: MiLLENiUM



Format                                   : AVI
Format/Info                              : Audio Video Interleave
File size                                : 670 MiB
Duration                                 : 1h 51mn
Overall bit rate                         : 837 Kbps
Writing application                      : Lavf54.59.103

Video
ID                                       : 0
Format                                   : MPEG-4 Visual
Format profile                           : Simple@L3
Format settings, BVOP                    : No
Format settings, QPel                    : No
Format settings, GMC                     : No warppoints
Format settings, Matrix                  : Default (H.263)
Codec ID                                 : XVID
Codec ID/Hint                            : XviD
Duration                                 : 1h 51mn
Bit rate                                 : 698 Kbps
Width                                    : 640 pixels
Height                                   : 240 pixels
Display aspect ratio                     : 2.647
Frame rate                               : 25.000 fps
Color space                              : YUV
Chroma subsampling                       : 4:2:0
Bit depth                                : 8 bits
Scan type                                : Progressive
Compression mode                         : Lossy
Bits/(Pixel*Frame)                       : 0.182
Stream size                              : 559 MiB (83%)
Writing library                          : XviD 64

Audio
ID                                       : 1
Format                                   : AC-3
Format/Info                              : Audio Coding 3
Mode extension                           : CM (complete main)
Format settings, Endianness              : Big
Codec ID                                 : 2000
Duration                                 : 1h 51mn
Bit rate mode                            : Constant
Bit rate                                 : 128 Kbps
Channel(s)                               : 2 channels
Channel positions                        : Front: L R
Sampling rate                            : 48.0 KHz
Bit depth                                : 16 bits
Compression mode                         : Lossy
Stream size                              : 102 MiB (15%)
Alignment                                : Aligned on interleaves
Interleave, duration                     : 32 ms (0.80 video frame)

Screens: 
http://i.imgur.com/kmWedfO.png 
http://i.imgur.com/H69PBkM.png 
http://i.imgur.com/XvgBXbF.png 
http://i.imgur.com/yLt3qbu.png 
http://i.imgur.com/Jdaqzrt.png